<svg width="390" height="745" viewBox="0 0 390 745" fill="none" xmlns="http://www.w3.org/2000/svg">
<path d="M232 -0.000366211L300 137.5L1.49999 423L242 563.5L232 744" stroke="#DC84F7" stroke-width="2"/>
<path d="M155.5 -0.000366211L223.5 137.5L-75 423L165.5 563.5L155.5 744" stroke="#DC84F7" stroke-opacity="0.5" stroke-width="2"/>
<path d="M79 -0.000366211L147 137.5L-151.5 423L89 563.5L79 744" stroke="#DC84F7" stroke-width="2"/>
<path d="M308.5 0L376.5 137.5L78 423L318.5 563.5L308.5 744.001" stroke="#DC84F7" stroke-opacity="0.5" stroke-width="2"/>
<path d="M385 0L453 137.5L154.5 423L395 563.5L385 744.001" stroke="#DC84F7" stroke-width="2"/>
<path d="M461.5 0L529.5 137.5L231 423L471.5 563.5L461.5 744.001" stroke="#DC84F7" stroke-opacity="0.5" stroke-width="2"/>
</svg>
