<svg width="69" height="69" viewBox="0 0 69 69" fill="none" xmlns="http://www.w3.org/2000/svg">
<path d="M39.0556 1.90212C38.0147 1.57092 36.8046 1.47662 35.3059 1.64797C35.1638 1.66635 35.0203 1.62745 34.9064 1.53966C34.7924 1.45187 34.7171 1.32225 34.6968 1.17877C34.6895 1.10764 34.6961 1.03574 34.7164 0.967228C34.7367 0.898718 34.7702 0.834964 34.815 0.779662C34.8598 0.72436 34.915 0.678609 34.9775 0.645061C35.0399 0.611513 35.1082 0.590834 35.1786 0.584224C36.7921 0.399074 38.1681 0.493374 39.3953 0.883224C40.6259 1.27422 41.6701 1.94927 42.6337 2.87732C44.2813 4.46087 45.3187 6.57227 45.7175 8.73657C46.2061 11.3942 45.1267 13.8012 45.1267 16.4232C45.1267 17.3547 46.0618 17.9423 46.6038 18.5886C47.5492 19.7156 46.4561 22.5872 46.0732 23.7659C45.6698 25.0079 45.0199 26.6812 44.9562 27.9956V28.0106C45.2108 28.5051 45.8164 28.7811 46.2061 29.1606C47.6117 30.5325 48.0549 32.5347 48.0549 34.2999C48.0549 35.596 47.497 36.5539 46.5277 37.3474C46.0505 37.7373 45.5528 38.0857 45.0142 38.3824C45.0131 38.916 45.0096 40.0683 45.0028 41.3713C44.9976 43.0424 44.9775 44.7134 44.9426 46.3841C44.8881 48.3817 45.1915 50.7702 45.4812 52.7609C45.5664 53.3508 45.6585 53.8936 45.7289 54.2881C45.8096 54.7366 46.48 54.6331 46.8822 54.7688C47.5492 54.9942 48.0196 55.4668 48.223 56.1488C48.506 57.1056 48.8105 58.0543 49.0321 59.0284C49.3559 60.4601 50.7865 60.6729 51.6966 61.5607C52.2125 62.0644 52.4068 63.0154 52.6818 63.6824C53.359 65.3292 50.7717 65.8283 49.7309 66.1952C46.5993 67.2992 43.4666 67.3912 40.1759 67.3452C40.1051 67.3455 40.0349 67.3316 39.9694 67.3045C39.9039 67.2773 39.8443 67.2373 39.794 67.1867C39.7438 67.1362 39.7039 67.0762 39.6766 67.01C39.6493 66.9438 39.6352 66.8729 39.6351 66.8012C39.6413 66.6568 39.7032 66.5207 39.8075 66.422C39.9118 66.3233 40.0502 66.2699 40.193 66.2734C43.3166 66.3171 46.3152 66.263 49.2889 65.2119C49.5763 65.1096 51.85 64.5392 51.6614 64.0815C51.4148 63.4789 51.1864 62.8567 50.8808 62.2817C50.2604 61.7366 49.4218 61.5043 48.7844 60.973C48.2446 60.5245 48.1105 59.9311 47.9628 59.2745L47.9537 59.2354C47.7401 58.2924 47.4424 57.3724 47.1674 56.4466C46.9731 55.7934 46.2948 55.6876 45.713 55.6083C44.9653 55.5071 44.7892 55.2656 44.6472 54.4721C44.5756 54.0696 44.4813 53.5164 44.3938 52.9115C44.0961 50.868 43.7882 48.4081 43.845 46.3554C43.8768 45.2272 43.8938 43.1584 43.9041 41.3644C43.912 40.0223 43.9154 38.839 43.9154 38.3307C43.9154 38.0524 43.9245 37.7453 44.2018 37.5981C45.4471 36.7701 46.9561 36.0307 46.9561 34.2999C46.9561 32.6658 46.5402 31.0017 45.4289 29.9184C44.9415 29.4423 44.2972 29.1203 43.9745 28.4901C43.445 27.4563 44.6665 24.5502 45.0074 23.4991C45.238 22.7884 46.3505 19.979 45.7539 19.2671C45.021 18.3931 44.0279 17.6916 44.0279 16.4232C44.0279 13.8782 45.1096 11.4966 44.637 8.92632C44.2733 6.95177 43.3291 5.04967 41.8633 3.63977C40.9952 2.80487 40.093 2.23102 39.0556 1.90212Z" fill="#FF73E5"/>
<path fill-rule="evenodd" clip-rule="evenodd" d="M42.7939 16.9683C43.8097 12.2613 44.4563 3.42932 36.1024 2.06772C29.0757 0.92232 26.1657 10.2948 25.1589 15.6527L23.1841 17.7986L21.5706 27.807C20.9127 28.106 19.5969 29.202 19.5969 31.2041C19.5969 33.2051 20.315 34.5403 20.6729 34.9577C20.3741 36.9829 19.9559 41.5357 20.6729 43.5367C21.0365 44.5487 21.9262 45.3273 23.1193 45.931L22.8398 56.5938L20.3457 57.3022L19.098 61.1823L17.8504 61.5986L16.188 64.5196C18.8799 65.1751 26.0554 66.8783 33.2322 67.022C40.4089 67.1646 47.5856 64.6979 50.2763 63.6847L49.8604 62.1288L47.7822 60.3474L46.5345 57.4276C46.1186 56.5938 45.446 55.9027 44.8722 55.7601C44.2608 55.6071 44.0131 56.1534 43.6677 55.0793L43.4586 54.4422C43.028 53.1542 42.561 42.3465 42.3826 37.1025C42.3826 37.1025 43.2802 37.0668 43.9961 36.9242C44.8937 36.7448 46.3289 34.9577 46.3289 32.8187C45.7039 30.3152 44.0063 29.064 42.3826 29.064C43.3211 25.0746 44.3313 21.7005 44.4563 21.1382C44.8153 19.5293 43.87 17.3892 42.7939 16.9671V16.9683ZM39.4669 37.8247C38.3681 42.2568 38.0784 46.1978 37.8034 46.4727C37.0864 47.1868 33.4367 47.1201 29.4893 46.5842C27.6621 46.3358 25.6509 45.8988 24.0851 45.333C24.5465 47.5054 26.5463 51.581 31.0778 53.0127C36.9637 54.8723 38.5124 53.3175 39.051 52.0065L39.4669 37.8247Z" fill="white"/>
<path fill-rule="evenodd" clip-rule="evenodd" d="M25.5475 15.2514C24.059 16.5325 23.267 16.6521 23.4159 18.1379C23.4318 18.2954 23.9727 19.7651 23.8954 20.1032C23.6034 21.3728 23.3693 22.6562 23.0716 23.9247C22.8489 24.8711 23.0295 25.3058 23.6454 25.3058C24.5294 25.3058 24.3851 24.0167 25.2771 24.0167C27.0679 24.6227 26.2997 27.1332 25.0896 27.362C25.0896 27.362 24.7226 27.3965 24.3056 27.362C23.5193 27.2976 23.9488 25.269 23.0648 25.8751C22.7625 26.0821 19.848 30.2428 19.84 30.9926C19.8173 33.2811 21.3626 34.3874 22.3103 31.2341C22.6682 30.8845 22.9307 31.2341 22.9307 31.2341C23.0261 31.5802 23.1636 31.8401 23.3102 31.9528C23.9465 32.4427 24.3033 32.805 24.434 33.4547C24.6271 34.4219 24.4737 35.3856 23.9636 36.309C23.5738 37.0128 22.7682 36.738 22.266 36.1791C22.266 36.1791 20.9956 39.4163 20.9729 40.1029C20.924 41.5795 21.4501 42.7283 21.3944 44.2475C21.3785 44.6787 21.4081 44.7581 21.7012 45.0536C22.1023 45.4596 22.6648 46.3738 23.0648 46.4509C23.0818 50.0435 23.0648 52.7701 22.6739 57.5024C22.6739 57.5024 20.582 57.3586 20.3116 57.6036C19.8707 58.0038 19.4866 60.5257 19.4866 60.5257L20.9411 61.0777C20.0775 61.3641 18.5151 61.425 17.7788 61.8643C17.2311 62.1909 16.188 64.2828 16.188 64.2828C18.347 66.4678 23.1023 66.0043 25.9861 66.4678C27.603 66.7265 33.0844 67.029 33.0844 67.029C33.2731 65.933 33.6685 65.3615 33.8457 64.2575C35.5774 64.2575 43.3405 63.7883 43.3405 61.21C43.3405 61.034 43.1552 60.9455 42.7905 60.9455C39.5192 61.9609 36.683 61.9609 34.5014 62.1714V60.129C37.7238 60.1152 41.7542 59.6356 45.4062 57.9106C45.7812 57.7427 46.5913 56.8009 45.6448 56.1937C45.1074 55.8487 44.2972 56.426 43.762 56.5571C43.0007 56.7445 40.7804 57.4173 39.8169 57.5024C39.8169 51.2579 39.8282 44.2808 40.1623 38.0214C40.9634 38.141 41.8974 38.3031 42.686 38.0858C42.9984 37.9995 43.2552 37.4303 43.3155 36.6908L43.3609 36.1273C42.6451 35.6041 41.2247 35.711 41.2224 33.2385C41.219 30.766 43.7234 30.9926 43.7234 30.9926C45.1085 29.7609 42.1246 28.7133 41.2258 28.7133C39.3044 28.7133 37.4171 30.5751 36.8444 32.2576C36.283 33.9044 36.116 36.3872 37.4057 37.7097C37.5148 37.8224 37.5261 38.2042 37.467 39.9787C37.467 41.7899 37.5375 43.8427 37.25 44.7282C36.9625 45.6137 36.4274 45.8759 35.8626 45.5987C33.0333 44.2072 29.8142 43.8864 26.7156 43.8542C25.3066 43.8392 24.1101 43.8024 24.059 43.7702C23.5113 43.4402 24.4124 43.1366 24.5987 43.1159C25.4453 43.0239 28.5359 43.017 31.488 43.1032C35.1581 43.2102 32.6208 42.005 30.2631 41.6473C28.6098 41.3966 26.0736 41.3437 24.7135 41.5703C24.1829 41.6588 23.7386 41.6922 23.6931 41.6473C23.6102 41.5668 23.9636 38.6964 23.9636 38.6964C23.9636 38.6964 26.469 38.9839 27.611 36.1791C28.7155 33.8837 27.4406 31.18 25.0373 30.4544C24.4806 30.2853 24.434 30.2508 24.434 30.0105C24.434 29.6793 24.5647 29.5792 25.0907 29.5148C26.1759 29.3791 27.6315 27.7657 28.0098 26.7755C28.5757 25.2943 27.8826 23.4175 26.2088 23.1864C25.8907 23.1415 25.585 23.0633 25.5316 23.0104C25.1464 22.6332 25.8157 20.623 25.8986 20.0894C25.9725 19.6168 26.6974 19.6708 27.0679 19.6064C30.6801 18.9843 34.1378 19.9399 37.6443 20.5586C39.1021 20.8162 41.0213 21.3475 42.353 21.9869C42.7973 22.2008 45.3664 22.8264 44.8528 21.5039C44.2517 19.956 38.5272 18.8083 37.1318 18.4886C33.9276 17.7561 30.5528 17.004 27.2951 17.4962C26.7906 17.6204 26.2088 17.7227 26.2088 17.7227C26.2088 17.7227 26.6361 17.1983 27.2951 16.5325C28.178 15.6401 28.2132 15.632 31.1585 15.6205C34.6093 15.6079 37.8545 16.391 41.0497 17.7227C41.5838 17.9458 42.1155 18.1482 42.6428 18.3989C43.2814 18.7025 43.8643 18.9509 43.9381 18.9509C44.1483 18.9509 44.3074 18.6979 44.2449 18.4564C44.1949 18.2609 43.2927 17.2351 42.686 16.7602C40.6384 15.1582 37.9772 14.2474 35.1502 13.8702C28.7382 13.0169 31.1596 3.94226 31.1596 3.94226C27.036 6.23996 27.3508 13.9588 25.5475 15.2514ZM25.5475 47.1305C25.3839 47.1305 25.3635 47.1708 25.4157 47.3835C26.0248 49.8894 29.145 51.3867 31.4198 52.0031C32.7936 52.3757 36.7966 52.9967 37.9443 51.8846C38.4772 51.3706 38.1534 48.8348 38.1806 48.0448C34.6695 49.0039 28.9938 48.4622 25.5464 47.1317L25.5475 47.1305Z" fill="black"/>
<path fill-rule="evenodd" clip-rule="evenodd" d="M29.1086 3.62246C26.9383 5.88106 25.0351 10.7214 25.0351 14.0001C25.0351 14.498 25.0055 14.5406 23.8261 15.7987C21.9728 17.6157 22.4444 19.4913 22.4444 19.4913C22.4444 19.4913 22.4966 19.7995 22.283 20.9346C22.1637 21.5648 22.0728 22.6285 21.9728 23.0609C21.8065 23.7811 21.6474 24.5029 21.4956 25.2264C21.1945 26.6731 20.9036 26.9341 20.5763 27.2826C19.2617 28.6821 18.9219 29.7436 18.923 31.0845C18.9242 31.7112 19.4594 32.614 19.7457 33.0142C19.9127 33.2488 19.948 33.4443 19.9707 34.2895C19.9866 34.8381 20.0684 35.589 20.1548 35.957C20.2979 36.5711 20.2991 36.7137 20.1707 37.6935C20.0059 38.9482 19.9911 40.8215 20.1309 42.7075C20.2741 44.6372 20.307 44.6936 21.9637 45.8815L22.7387 46.437L22.6784 47.6962C22.6443 48.3885 22.5512 49.5167 22.4716 50.2032C22.3285 51.4268 22.333 52.2502 22.4978 54.9826L22.5546 55.9291H22.2728C21.7365 55.9291 20.5184 56.4719 20.0252 56.9319C19.6094 57.3194 19.5457 57.4321 19.3776 58.1003C19.0776 59.2848 18.906 60.1737 18.9367 60.3911C18.9617 60.5728 18.9128 60.5981 18.4526 60.6487C17.6038 60.7395 17.4186 60.8982 16.9562 61.9332C16.7857 62.3127 16.471 62.9222 16.2562 63.2833C15.721 64.1861 15.5904 64.6921 15.7881 65.1049C16.0574 65.6673 16.6766 65.8409 20.2616 66.3676C20.9752 66.4734 21.9137 66.6367 22.3466 66.7322C22.7807 66.8276 23.5931 66.9898 24.1533 67.0944C27.1644 67.6544 27.2883 67.6717 30.2244 67.9431C32.3356 68.1375 36.9035 67.9132 38.5795 67.5337C38.9022 67.4601 39.3964 67.3739 39.676 67.3417C39.9566 67.3083 40.4566 67.2232 40.7884 67.1531L42.5496 66.7782C43.1859 66.6436 43.9779 66.4539 44.3097 66.3561C45.3971 66.0376 47.6844 65.4591 48.1094 65.397C48.8252 65.2901 50.0865 64.9232 50.5694 64.6783C51.191 64.3643 51.3012 64.1378 51.2319 63.3144C51.1523 62.3576 50.9342 61.9965 49.824 60.9707C48.7593 59.9863 48.5457 59.6436 48.0321 58.1003C47.6287 56.8893 47.2595 56.1556 46.9061 55.8578C46.6413 55.6358 45.7459 55.2138 45.213 55.0608C44.4256 54.8343 44.4404 54.8734 44.0836 52.2353C44.0109 51.7017 43.9268 50.3297 43.895 49.1878C43.8643 48.0435 43.795 46.7141 43.7427 46.2323C43.6893 45.7493 43.6347 43.6379 43.6211 41.5391L43.595 37.7246C46.1732 37.6694 47.0686 35.4269 47.3106 33.0533C47.5424 30.7786 45.4471 29.2514 43.5677 28.4728C43.5677 27.6092 44.4495 24.2937 44.8278 22.9022C46.138 22.6573 45.6471 19.5764 45.2914 18.6702C44.9992 17.8967 44.5598 17.1888 43.9984 16.5864C44.8494 11.2918 45.3767 4.69311 39.9157 1.89056C36.8023 0.292056 31.8414 0.776206 29.1086 3.62246ZM37.0728 4.19861C40.6134 5.57286 41.4531 6.26861 41.9587 10.2591C42.2349 12.4361 41.7769 14.4336 41.6224 16.5864C41.5735 17.2764 42.2337 17.7065 42.4587 17.8526C42.9996 18.2068 43.6041 19.4798 43.5688 21.0956C42.7507 21.4176 42.3587 21.988 42.2337 22.9022C42.0042 24.5881 40.7134 28.0036 41.2827 29.7344C41.5758 30.0978 42.4848 30.5141 43.3291 30.8763C45.4619 31.3455 45.8073 33.933 44.4495 35.3613C44.0006 35.834 42.6121 36.0099 42.0746 36.1709C41.8417 36.2399 41.5656 36.3779 41.4611 36.4757C41.2736 36.6505 41.2702 36.7287 41.2827 41.0239C41.2883 43.4999 41.2224 46.0529 41.2827 46.629C41.3395 47.1879 41.427 48.7255 41.4781 50.0468C41.5451 51.7983 41.6304 52.8103 41.794 53.7866C42.0326 55.2172 42.0883 55.3702 42.5905 55.9912C42.9428 56.4282 44.0983 56.4788 44.8301 56.6961C45.5232 56.8997 45.8641 57.0998 46.0118 57.3861C46.0823 57.5241 46.2959 58.1164 46.4845 58.7006C46.6731 59.2848 46.8584 59.8046 46.8947 59.8552C46.9322 59.9058 47.0799 60.2301 47.2242 60.5762C47.4106 61.0236 47.5753 61.2651 47.7958 61.4146C48.4207 61.8378 49.4991 62.9464 49.4991 63.1649C49.4991 63.3592 49.4161 63.3949 48.5491 63.5904C47.1083 63.9135 45.4698 64.3126 44.5415 64.5667C42.8178 65.0382 40.2327 65.6006 39.0272 65.765C38.6704 65.8191 38.315 65.882 37.9613 65.9536C35.5217 66.4447 30.1063 66.4447 27.2122 65.9513C25.4271 65.6488 23.7499 65.3361 22.9966 65.167C22.1103 64.9692 20.2684 64.6587 19.4287 64.5667C19.034 64.5181 18.6415 64.4517 18.2526 64.3678L17.6334 64.2298L17.9458 63.7008C18.1163 63.4087 18.2845 63.0602 18.3185 62.9245C18.4299 62.4841 18.7356 62.2621 19.49 62.0758C20.1002 61.924 20.2559 61.9148 20.5877 62.0149C21.3433 62.2403 24.7646 62.8498 25.2941 62.8544C25.8077 62.8567 26.4804 62.6876 26.6213 62.5209C26.7917 62.315 26.5815 61.9689 26.1543 61.7515C25.8021 61.5733 24.7305 61.272 23.3432 60.9638C21.6956 60.5969 21.4365 60.5337 21.0229 60.398C20.6922 60.2899 20.59 60.214 20.6195 60.099C20.6422 60.0162 20.7559 59.5389 20.874 59.0398C21.1092 58.0393 21.2308 57.8898 21.6694 58.0646C22.3535 58.3372 25.8975 58.9754 26.7304 58.9766C27.3951 58.9766 27.8405 58.8213 27.9451 58.5511C28.0155 58.3671 28.0451 58.3993 27.5735 58.1624C27.1724 57.9611 26.6577 57.8197 24.9885 57.4517C23.3886 57.0998 23.5431 57.1688 23.6954 56.8767C23.7693 56.7364 23.8283 56.5869 23.8295 56.5432C23.8295 56.5018 23.9136 56.3603 24.0147 56.2315C24.2363 55.9509 24.251 55.4771 24.0942 53.6095C24.0124 52.6378 24.0136 52.0225 24.0999 50.9726C24.4794 46.3438 24.4851 46.1138 24.2181 45.6182C24.1045 45.4066 23.4965 44.8454 23.3806 44.8454C23.267 44.8454 22.2546 43.8805 22.2546 43.7736C22.2546 43.7207 22.6818 43.4976 23.2045 43.2779C23.7272 43.0583 24.3181 42.7512 24.5169 42.596L24.8794 42.3131L24.609 42.1981C24.2363 42.0394 23.5045 42.0486 22.9 42.2176C22.687 42.2796 22.4717 42.3333 22.2546 42.3786C22.0501 42.4074 21.9535 39.5197 22.1296 38.6296C22.1978 38.2823 22.2546 37.8465 22.2557 37.659C22.258 37.2772 22.3216 37.1461 22.5512 37.0622C22.6364 37.0311 22.7762 36.9012 22.8602 36.7724C23.008 36.5481 23 36.5125 22.6637 35.8202C22.2012 34.8703 22.1387 34.0883 22.4444 33.0993C22.5603 32.7278 22.7557 32.2701 22.8807 32.0815C23.0625 31.8055 23.0943 31.6721 23.0454 31.3823C22.9864 31.0304 22.992 31.0212 23.3613 30.8763C23.6897 30.7487 23.7363 30.6923 23.7363 30.4393C23.7363 30.1978 23.6852 30.1288 23.4159 30.0173C22.8784 29.793 22.6398 29.8448 22.208 30.276C21.908 30.575 21.799 30.7671 21.7478 31.0845C21.666 31.5928 21.3206 32.3679 21.1729 32.3725C21.1138 32.3759 21.0377 32.2425 21.0047 32.0769C20.9654 31.8881 20.9126 31.7025 20.8468 31.5215C20.7002 31.1431 20.9797 30.2611 21.4956 29.4733C21.7308 29.1145 21.9455 28.8006 21.9728 28.7753C22.0001 28.75 22.2626 28.4717 22.5557 28.1589C22.9739 27.7104 23.0898 27.5229 23.0954 27.2814C23.1023 26.9537 23.4409 26.1199 23.4522 26.3994C23.4636 26.6892 23.9033 27.4493 24.2022 27.7012C24.5658 28.0048 24.8839 28.0094 25.1771 27.7173C25.4634 27.4321 25.4634 27.2653 25.1737 26.7237C24.8896 26.1935 24.8839 25.8968 25.1396 25.1505C25.3237 24.6157 25.893 23.6957 26.0407 23.6957C26.1441 23.6957 26.702 23.1598 26.702 23.0609C26.702 22.8735 26.402 22.6791 26.1168 22.6814C24.5578 22.6814 23.7818 24.434 23.7818 24.434C24.0045 23.0586 24.5578 20.9346 24.659 19.6397C24.6908 19.5879 25.1135 19.4821 25.5964 19.4051C26.844 19.205 27.8803 18.9186 28.1939 18.6875C28.3416 18.5771 28.4632 18.4586 28.4632 18.423C28.4632 18.3873 28.32 18.2321 28.1451 18.078C27.5542 17.5616 26.652 17.5007 24.8158 17.8526C24.5737 17.8986 24.559 17.8871 24.6487 17.7203C24.8408 17.3627 25.7396 16.5358 26.1032 16.3829C26.3054 16.2978 27.0656 16.0379 27.7928 15.8056C29.654 15.211 29.8347 14.2933 27.7928 14.2933C27.7894 12.9421 28.1621 11.8139 28.5393 10.5466C29.7188 6.58946 31.3834 3.04516 37.0728 4.19861Z" fill="#323239"/>
</svg>
