<svg width="70" height="69" viewBox="0 0 70 69" fill="none" xmlns="http://www.w3.org/2000/svg">
<mask id="mask0_21_414" style="mask-type:luminance" maskUnits="userSpaceOnUse" x="1" y="0" width="68" height="69">
<path d="M8.49284 0.416748L68.757 7.2926L61.9632 68.2847L1.69905 61.4089L8.49284 0.416748Z" fill="white"/>
</mask>
<g mask="url(#mask0_21_414)">
<mask id="mask1_21_414" style="mask-type:luminance" maskUnits="userSpaceOnUse" x="1" y="0" width="68" height="69">
<path d="M8.49284 0.416748L68.757 7.2926L61.9632 68.2847L1.69905 61.4089L8.49284 0.416748Z" fill="white"/>
</mask>
<g mask="url(#mask1_21_414)">
<path fill-rule="evenodd" clip-rule="evenodd" d="M38.9058 6.56884C38.114 6.47816 37.1215 6.40521 36.3745 6.75219C36.2522 6.80906 36.12 6.84086 35.9855 6.84576C35.8509 6.85066 35.7168 6.82855 35.5907 6.78071C35.4647 6.73288 35.3493 6.66026 35.2511 6.56706C35.1529 6.47385 35.074 6.36189 35.0188 6.23764C34.9062 5.98612 34.8963 5.69976 34.9913 5.44092C35.0864 5.18207 35.2786 4.97172 35.5262 4.85567C36.6219 4.34606 37.963 4.36281 39.1357 4.49687C40.1866 4.61614 41.1956 4.64769 42.3351 4.73344C46.4685 5.0469 50.4452 6.61123 53.0174 10.0681C54.5017 12.0622 56.1574 14.5945 56.5528 17.0756C56.9326 19.4561 56.9833 21.6444 57.0067 24.0308C57.0125 24.567 57.0193 25.1535 56.9745 25.7617C58.6799 27.1121 57.9222 30.6518 57.7089 32.5621C57.6134 33.4158 57.4751 34.2645 57.3475 35.1141C58.3118 36.5474 58.8913 38.1728 59.4493 39.8022C60.0084 41.4355 60.7194 43.5114 60.7233 45.4523C60.7281 47.8407 60.7174 50.4243 59.8077 52.6697C59.4669 53.5115 58.9351 54.4608 58.1442 55.0098C57.8209 55.2336 57.2219 55.5234 56.7904 55.7244C56.4905 55.8644 56.3015 55.9137 56.1476 56.2055C55.947 56.582 55.6461 57.1025 55.2341 57.7008C53.2609 60.5692 50.3176 62.8403 47.1182 64.1109C46.2114 64.4707 45.141 64.6668 43.6217 64.8423C43.3548 64.8639 43.09 64.7795 42.8835 64.607C42.677 64.4345 42.545 64.1875 42.5153 63.9181C42.4857 63.6488 42.5608 63.3784 42.7248 63.1641C42.8888 62.9499 43.1287 62.8086 43.3938 62.7703C44.8849 62.5988 45.7312 62.4253 46.378 62.169C49.18 61.0552 51.8272 59.0207 53.5589 56.5061C53.9192 55.9827 54.1793 55.5303 54.3478 55.2148C54.4286 55.0611 54.5085 54.9053 54.5796 54.7456C54.8046 54.2114 55.4659 54.0497 55.9412 53.8289C56.4165 53.6071 56.8421 53.3922 56.993 53.2868C57.2803 53.0877 57.6203 52.6047 57.9154 51.8762C58.7189 49.8949 58.6809 47.5617 58.677 45.4592C58.6731 43.752 57.9718 41.8416 57.3475 39.9954C56.8411 38.4971 56.3015 37.1565 55.4522 36.0013C55.1932 35.6484 55.2536 35.262 55.3159 34.8598C55.4415 34.0259 55.5789 33.194 55.6724 32.3561C55.8516 30.7455 56.1184 28.9889 55.7006 27.396C55.2565 27.0707 54.7715 26.8479 54.8727 26.1648C54.9721 25.4926 54.9672 24.8105 54.9604 24.0278C54.936 21.7469 54.8951 19.6877 54.5319 17.4137C54.1929 15.2865 52.6619 13.042 51.386 11.3289C49.1703 8.352 45.7274 7.08141 42.1802 6.8133C41.1605 6.73641 39.9976 6.69304 38.9058 6.56884Z" fill="#0CE51C"/>
<path fill-rule="evenodd" clip-rule="evenodd" d="M50.5903 14.285C50.0001 13.1801 47.9986 10.6586 44.7135 9.41758C40.6063 7.86607 36.2469 7.36828 34.4724 7.70835C32.6959 8.04744 27.2905 10.9514 24.2148 15.7449C21.7546 19.5803 20.6589 21.6572 20.4183 22.2171L19.3177 22.497C18.4441 23.5261 16.54 26.297 15.9011 29.1486C15.2622 31.9993 15.0596 35.5065 15.0372 36.9023C13.4468 37.5785 10.0964 39.4799 9.42338 41.678C9.27047 42.1778 9.10198 42.7022 8.92861 43.2394C8.14945 45.6603 7.28264 48.3503 7.39951 50.2478C7.54171 52.5653 11.7151 58.3208 14.5016 59.7225C17.287 61.1242 21.3075 62.2598 23.5973 62.1148C25.4283 61.9985 27.0723 60.932 27.6655 60.4125C28.5878 61.3292 31.0129 63.2583 33.3241 63.6309C36.2158 64.0961 39.5165 64.4727 41.2063 63.7176C42.5571 63.1134 44.4515 62.5988 45.2287 62.4165C46.7812 61.691 50.153 59.7551 51.2243 57.8201C52.2957 55.8842 52.9278 54.5396 53.1089 54.1089C53.8033 54.2784 55.3957 54.2341 56.208 52.7023C57.2239 50.787 57.6728 45.5578 56.8245 43.5657C56.1457 41.9718 53.9085 37.7273 52.8742 35.8042C53.2735 34.6312 54.0196 32.0082 53.8218 30.9022C53.6241 29.7962 53.2531 28.4005 53.0933 27.8406C53.1742 26.3157 53.216 22.6557 52.7388 20.2181C52.2616 17.7804 51.1075 15.2481 50.5903 14.286V14.285ZM26.9097 37.1733L23.0236 36.0526C23.6372 34.1363 25.028 30.0535 25.6757 29.0441C26.2508 28.1544 26.8394 27.2737 27.4414 26.4024L27.5749 25.1989C28.3949 23.4423 30.8162 19.6385 33.9406 18.4783C37.066 17.3191 40.1271 16.566 41.2676 16.3363C41.7079 16.3856 42.6808 17.0924 43.0529 19.5182C43.4249 21.9431 43.7298 24.6498 43.8359 25.7006C43.5262 26.4773 42.7948 28.3167 42.3468 29.4562C41.8988 30.5976 41.2374 31.812 40.9638 32.2773C39.6577 31.9934 36.4349 31.6257 33.9922 32.4301C31.5476 33.2344 28.2527 35.9274 26.9097 37.1733Z" fill="white"/>
<path fill-rule="evenodd" clip-rule="evenodd" d="M33.552 7.32688C28.9404 8.41313 23.9099 14.9494 20.8244 20.9554C20.7991 21.184 21.5909 23.5971 21.8412 23.8632C22.1987 24.2447 22.3506 24.2822 22.8278 24.1116C23.0704 24.0249 23.6362 23.5793 24.2966 22.5207C25.6007 20.431 27.3548 19.0312 29.8403 16.8804C33.7945 13.46 38.8084 11.2471 42.114 17.0263C43.05 18.6626 43.5759 20.9297 43.8428 23.5813C44.169 26.8292 42.1549 27.6947 41.741 31.4108C41.741 31.4108 40.4076 31.3389 39.7035 31.193C37.4137 30.7199 34.0624 31.4128 31.8758 32.8115C29.6163 34.2566 27.3957 36.5641 25.9075 39.0117L25.1965 40.1817C24.5293 39.9511 24.2323 39.6445 23.0879 39.5134C22.0945 39.4 20.9062 39.0856 19.2612 40.1364C18.3019 40.7485 17.3698 42.1216 17.0251 43.6593C16.8605 44.3986 17.4643 44.4745 17.9581 43.7658C18.4275 43.0935 19.3401 43.0393 20.1992 42.7515C21.0786 42.4577 23.8398 43.1674 23.8398 43.1674C23.8398 43.1674 22.9009 46.5406 22.6983 48.2616C22.5162 49.7993 22.522 49.9492 22.7918 50.9546C23.3596 53.064 24.0287 55.1113 24.3599 55.757C24.7475 56.5091 24.7251 56.5426 23.6596 56.7624C22.5152 56.998 20.7582 56.6027 18.372 55.5746C17.3805 55.1468 17.0027 54.8817 15.6547 53.6692C14.6515 52.7663 13.7672 51.824 13.1926 51.0433C12.4192 49.9925 12.2215 49.5992 11.7579 48.1818C11.1697 46.3858 10.9418 44.924 10.9983 43.2926C11.0275 42.3828 11.0995 42.0674 11.5115 41.0265C12.4767 38.5918 11.6089 38.2142 9.20814 42.1246C8.21471 43.7431 7.90402 48.5179 7.97317 50.4479C8.1066 54.1414 12.4533 58.5495 16.0988 60.4628C20.9101 62.9892 25.4108 62.1631 27.7424 60.1848C29.7273 62.0281 31.6246 62.6294 33.364 63.3371C34.7091 63.8852 36.9949 64.2302 38.4383 64.104C39.4473 64.0153 41.7342 61.9709 40.2206 61.6082C38.078 61.0956 36.2985 60.3179 34.5182 57.2927C33.6387 55.7974 33.3543 55.0916 32.9092 53.2927C32.6229 52.1414 32.2313 50.5889 32.3209 49.7796L32.5966 47.3025C32.4797 47.2384 30.1101 47.1379 29.6806 47.1389C27.6742 47.1409 29.7682 43.129 30.2513 42.0171C30.8746 40.579 33.1196 39.128 34.9146 37.5321C37.5384 35.197 42.6097 34.6459 44.7758 31.7558C48.9073 25.0214 46.0517 13.2086 40.132 8.96415C39.0548 8.19233 34.3662 7.13466 33.552 7.32688ZM19.0801 22.6419C18.5581 23.2294 18.2133 23.8218 18.1714 24.1993C18.1519 24.3817 17.9552 24.9041 17.737 25.3605C16.8673 27.1772 15.4989 32.1836 15.2418 34.4853C15.1492 35.3182 15.1687 35.5528 15.3508 35.7992C15.7443 36.3345 16.5878 36.1699 16.9131 35.4956C16.9929 35.33 17.4039 33.9323 17.8256 32.3906C18.6009 29.5537 19.8709 26.4547 21.0562 24.0318C21.5043 23.117 20.353 21.2057 19.0801 22.6419Z" fill="black"/>
<path d="M41.0134 49.2601C41.3582 47.5706 42.3672 46.2083 43.6967 45.6386C44.3784 45.3468 44.6093 45.3113 45.1741 45.4168C46.4773 45.6612 47.6597 47.0915 47.7064 48.4823C47.7376 49.4276 47.4162 50.9171 47.0032 51.7372C46.2659 53.2049 45.1284 53.8407 43.5593 53.6642C42.8552 53.5854 42.6993 53.5124 42.1276 52.992C40.9901 51.956 40.6764 50.9062 41.0134 49.2601Z" fill="#323239"/>
<path fill-rule="evenodd" clip-rule="evenodd" d="M36.5605 5.43522C34.8951 5.36424 32.6219 6.48697 31.236 7.17204L31.2067 7.18584C26.1773 9.67182 22.1451 15.0164 20.2566 20.219C20.2566 20.219 19.007 19.8976 18.1802 21.2244C16.3706 24.1273 14.7674 28.3107 13.9727 33.2186L13.6737 35.9027C11.1901 37.4374 9.68732 39.054 8.43872 41.7854C5.88405 47.3764 5.48278 54.3503 10.4012 58.2537C14.2279 61.2897 20.4816 65.3381 27.1142 62.511L27.647 62.097L28.5819 62.7259C29.7546 63.5145 31.4863 64.3868 32.6394 64.7693C34.1705 65.2779 36.767 65.3548 38.4909 65.2898C40.0395 65.2306 41.6864 64.4302 42.412 63.9659C46.1091 63.7974 49.9894 62.4085 52.7973 57.7796C53.3251 56.9102 53.8744 55.8269 53.8744 55.8269C54.6234 55.9117 56.5586 54.4055 56.9619 53.8387C57.8111 52.646 58.2007 51.1152 58.5455 48.089C59.0373 43.6691 57.2511 39.1131 54.9097 35.5636C55.2779 34.6804 55.348 33.9618 55.4259 33.1762C55.4717 32.7188 55.5194 32.2397 55.6285 31.6917C56.283 28.4112 54.8464 19.595 53.8092 16.5304C52.1593 11.6561 48.8226 8.4929 44.9852 6.98673C43.2194 6.29377 38.9428 5.53773 36.5605 5.43522ZM46.2659 10.5107C50.7919 13.2923 51.6899 17.7714 52.1525 22.9632L47.3675 21.1554C47.3509 19.6808 47.2155 18.5147 47.0948 17.8365C46.3906 15.1938 43.2146 10.4594 42.4938 11.312C42.1783 11.6866 42.3896 11.9015 42.8026 12.3214C43.4522 12.9799 45.2862 16.4654 45.6679 19.5487C45.6679 19.5487 45.7877 20.2761 45.8481 21.3387L44.134 22.1303C43.8204 16.8932 40.5547 12.3914 35.3538 12.7049C33.6962 12.9414 32.5615 13.2864 31.2798 14.3589C29.9581 15.4629 29.6046 15.9134 29.7721 16.2771C30.0302 16.834 30.4052 16.7078 31.8057 15.592C33.292 14.4092 34.2192 14.1558 35.646 14.0168C36.9901 13.8848 39.757 14.9631 39.8544 15.455C39.8768 15.5674 39.7522 15.6127 39.496 15.5831C38.224 15.4382 35.235 16.423 33.4692 17.5703C31.5408 18.8222 28.6774 21.737 27.6518 23.4935L27.1454 24.3599L24.952 24.0199C23.7463 23.8336 22.712 23.6207 22.712 23.6207L21.7516 21.6325C21.7516 21.6325 23.7911 17.3328 25.1351 15.594C27.6284 12.3677 31.2457 9.44214 33.9357 8.47516C36.133 7.68462 38.6847 8.20704 40.9307 8.66639C42.7792 9.0449 44.6375 9.51016 46.2659 10.5097V10.5107ZM44.1457 23.8819C44.021 26.6162 43.2467 29.5714 41.7906 32.359C41.6037 32.5098 41.0553 32.8361 40.5732 33.0835C39.5272 33.6197 37.3105 35.2481 35.3957 36.8884C34.2581 37.8623 33.8023 38.3719 32.8138 39.7765C31.3207 41.8978 30.7996 42.8007 30.1782 44.3414C29.5832 45.8199 29.5958 46.1147 30.2717 46.3877C31.0977 46.7228 31.5135 46.4173 32.1184 45.0392C33.1167 42.7622 34.973 40.3177 36.7612 38.9308C37.7254 38.1816 39.7142 37.1663 41.0018 36.7622C41.8316 36.503 43.4366 36.3659 44.3716 36.4763C46.3653 36.71 48.5732 37.6454 50.0118 38.8647C52.768 41.1999 54.4023 44.7692 54.3867 48.4291C54.3789 50.1098 54.3322 50.9959 54.0585 52.2714C53.9767 52.508 54.0429 52.6381 54.3069 52.6677C55.8379 52.8431 55.8866 47.468 55.8545 46.7544C55.7308 44.0033 54.5026 40.3354 52.2548 37.1565C51.3899 35.9322 51.5019 35.6148 51.7386 35.1121C52.2674 33.2274 52.5041 29.3624 52.3132 25.3171L47.3168 23.115C47.2222 24.6891 46.9835 26.2509 46.6039 27.7804C46.0926 30.084 45.6494 30.7967 43.9236 31.5379C43.9236 31.5379 45.1664 27.8671 45.6592 25.1732C45.7868 24.4733 45.8491 23.7596 45.8715 23.0844L44.1457 23.8819ZM41.2452 18.1184C43.5087 22.3392 42.9234 25.8208 40.956 29.6444C38.1851 29.3289 35.5817 29.599 33.068 30.9406C30.9759 32.0564 29.1488 33.6217 27.4911 35.3112C26.5532 35.0904 26.488 35.0687 25.5744 34.7563C26.2269 32.0091 27.3957 30.1845 28.8245 27.9568L28.8264 27.9529C29.0115 27.665 29.1994 27.3713 29.3913 27.0667C29.5686 26.7868 29.4945 26.1628 29.439 25.6926C29.4137 25.4787 29.3913 25.2964 29.3991 25.1929C29.516 23.5674 32.9199 20.1529 35.5506 18.7857C37.4439 17.802 39.4629 17.3742 40.5157 17.4688C40.843 17.4984 40.9755 17.6167 41.2452 18.1184ZM20.4631 24.0623C20.7845 25.0361 21.3231 25.4846 23.1152 25.6887C24.7874 25.8799 26.3506 25.8375 26.5337 26.2998C25.2393 28.1372 23.7288 31.3457 23.1385 33.7025L23.0606 34.0249C22.9856 34.3521 22.9399 34.5532 22.8171 34.6774C22.6262 34.8746 22.2484 34.8844 21.2744 34.91C21.0923 34.915 20.8897 34.9199 20.6637 34.9278C19.085 34.9771 17.738 35.19 16.8838 35.5212C16.6033 35.6296 16.3189 35.7134 16.2517 35.7055C16.1203 35.6907 16.2907 34.5118 16.802 31.9243C17.1458 30.1747 17.5286 28.8321 18.0964 27.3752C18.635 25.9923 19.9089 22.9247 19.9907 22.8134C20.1641 22.8331 20.2995 23.5714 20.4621 24.0632L20.4631 24.0623ZM39.0616 32.2457C38.9418 32.3225 38.3068 32.7178 37.6514 33.1229C36.9949 33.5271 35.6742 34.5049 34.7149 35.2955C32.0667 37.4768 30.6428 39.3536 29.3592 42.3532C28.3141 44.7948 28.058 46.2822 28.5586 47.0018C28.9735 47.5982 30.7626 48.1452 31.4161 47.8751C31.6499 47.7785 31.6703 47.8466 31.6548 48.6815C31.6002 51.5351 31.8301 53.1014 32.6404 55.3833C33.4381 57.6278 33.9455 58.4913 35.087 59.5499C36.7154 61.0581 38.1666 62.2301 39.5272 62.6027C38.6799 63.1113 36.8371 63.0335 35.9216 62.6342C31.7609 60.8235 28.8245 54.9871 28.1554 50.6194C28.0453 49.8998 27.9284 49.1536 27.8953 48.9634C27.8583 48.7544 27.7395 48.6065 27.5924 48.5898C26.9048 48.5109 26.8522 51.6632 27.5009 54.0635C28.0609 56.1394 29.0192 58.8471 30.5552 60.5534C31.0421 61.0936 31.421 61.5529 31.3976 61.5736C31.3119 61.6525 29.6017 60.4272 28.9482 59.9097C26.635 58.0783 25.2569 55.5805 24.4056 51.679L24.1183 50.3621L24.467 47.2847C24.804 44.3138 24.8332 44.1659 25.3075 43.0422C26.746 39.6385 28.7748 37.0402 31.6304 34.9495C33.3056 33.7203 34.6964 32.9682 35.9625 32.6054C36.9638 32.3176 38.599 32.0357 39.0188 32.0791C39.2457 32.1027 39.2516 32.1224 39.0616 32.2457ZM48.3775 39.9894C52.6979 42.8027 53.6689 48.3286 52.2421 53.0009C51.6548 54.9279 50.937 56.2961 49.7829 57.6948C45.7702 62.5564 39.7765 62.8403 35.8905 57.8062C33.9231 55.2552 32.9345 52.7456 33.4196 48.3926C34.0731 41.051 42.5698 35.5094 48.3775 39.9894ZM26.0429 37.4492C26.0935 37.4906 25.8218 38.02 25.439 38.6242L24.7446 39.7243L24.092 39.604C23.5291 39.4995 23.3898 39.5252 23.0626 39.7943C22.559 40.2092 22.6068 40.504 23.2496 40.9377C23.5427 41.1348 23.8057 41.327 23.8339 41.3635C23.8622 41.399 23.796 41.6602 23.6878 41.9431L23.4911 42.4557L22.8317 42.1886C21.7799 41.7617 20.6735 41.7913 19.4083 42.2812C18.8239 42.5079 18.3487 42.6617 18.3526 42.6233C18.3564 42.5838 18.6184 42.1698 18.934 41.7026C19.5262 40.8253 19.5914 40.4241 19.1502 40.3739C18.15 40.2595 16.7972 42.4478 16.5615 44.5592C16.1573 48.1906 18.9087 52.3828 22.2045 53.1576L23.0713 53.3606L23.385 54.4242C23.8057 55.8486 24.6774 57.5154 25.7546 58.9506C26.2415 59.6012 26.6399 60.1463 26.6379 60.1631C26.636 60.1808 26.3701 60.3149 26.0468 60.4607C24.5956 61.1153 22.858 61.205 20.6121 60.7407C15.5719 59.6988 10.4275 56.0004 9.10977 50.5997C8.77278 49.2236 9.43702 45.6336 10.5317 42.915C11.1181 41.4562 11.6966 40.7011 13.2948 39.3093C14.7684 38.0269 15.3888 37.7282 17.6231 37.2294C18.7051 36.9889 19.6898 36.8825 21.5607 36.8026C22.0331 36.7829 25.9104 37.3418 26.0429 37.4492ZM22.5396 43.3517L23.0947 43.5656L22.933 44.1758C22.8434 44.5109 22.6603 45.7805 22.524 46.9949C22.3107 48.9121 22.3029 49.334 22.4636 50.1945C22.5649 50.7396 22.6438 51.2295 22.6379 51.2828C22.6146 51.4888 21.5403 51.0876 20.7923 50.5937C18.9311 49.3655 17.437 46.6795 17.849 45.3024C18.1061 44.4419 19.6089 43.4059 20.8975 43.2009C21.6864 43.0747 21.8646 43.0915 22.5396 43.3517Z" fill="#323239"/>
</g>
</g>
</svg>
