<svg width="69" height="69" viewBox="0 0 69 69" fill="none" xmlns="http://www.w3.org/2000/svg">
<g clip-path="url(#clip0_21_433)">
<path d="M29.4253 1.31399C29.0664 1.12747 28.6261 1.27068 28.4418 1.63387C28.2575 1.99707 28.399 2.44271 28.7578 2.62925C30.8278 3.70517 32.834 5.55655 34.1861 7.47408C34.6965 8.19798 36.327 11.6526 37.0767 11.4842C37.6424 11.3571 38.2234 11.319 38.7854 11.1718C43.9874 9.80822 49.4806 10.9901 54.3529 13.453C57.5501 15.0693 58.5366 15.3463 60.9522 17.7885C63.1008 19.9609 62.905 22.8727 61.4952 25.6654C60.0804 28.4679 57.5518 30.8852 55.5414 31.7884C54.5311 32.2425 53.5291 32.7148 52.5255 33.1835C53.5061 34.3402 54.633 35.3933 55.5578 36.5954C56.7862 38.1923 57.0349 40.2284 57.4613 42.1463C60.468 42.8746 63.4318 43.9789 65.2217 46.7466C65.7544 47.5701 66.1055 48.666 66.3448 49.8648C66.9616 52.9554 66.9082 55.8898 66.0278 58.9312C65.2881 61.4868 63.6477 64.307 63.6477 67.0288C63.6477 67.4371 63.9747 67.7681 64.3781 67.7681C64.7815 67.7681 65.1086 67.4371 65.1086 67.0288C65.1086 64.4771 66.7358 61.7447 67.4298 59.3469C68.376 56.078 68.4398 52.894 67.7768 49.5721C67.5224 48.298 67.125 46.9897 66.4441 45.9368C64.6772 43.2046 61.7483 41.6724 58.6901 40.9239C58.3251 39.1856 58.0247 37.3953 56.7105 35.687C56.1673 34.9809 55.5269 34.3478 54.9235 33.6942C55.3324 33.505 55.7963 33.2917 56.1342 33.1399C58.4956 32.0789 61.2531 29.3948 62.7961 26.3381C64.3443 23.2716 64.7779 19.5664 61.9847 16.7425C59.3721 14.1011 58.1603 13.725 55.0058 12.1303C49.9303 9.56464 44.0672 8.25992 38.4192 9.74037C38.1289 9.81643 37.5354 9.90383 37.5354 9.90383C37.075 8.98479 36.4124 8.23016 35.8675 7.36723C35.707 7.1142 35.5479 6.86003 35.3752 6.61519C33.9051 4.5303 31.7278 2.51079 29.4253 1.31399Z" fill="#FFAAA8"/>
<path d="M31.1971 13.5135C31.5909 13.4255 31.8397 13.0309 31.7528 12.6322C31.6657 12.2335 31.2758 11.9817 30.8819 12.0698C27.3915 12.8502 23.0558 14.6435 19.5263 16.3357C13.2433 19.348 8.1024 24.6208 3.87599 30.136C2.74726 31.6089 1.71508 33.216 1.13096 34.9181C0.998607 35.3038 1.20025 35.725 1.58134 35.859C1.96244 35.993 2.37867 35.7889 2.51103 35.4032C3.01919 33.9223 3.9413 32.4634 5.03041 31.0422C9.11564 25.7111 14.0775 20.5842 20.1518 17.6719C23.6528 15.9934 27.8699 14.2574 31.1971 13.5135Z" fill="#FFAAA8"/>
<path d="M31.3598 37.6908C33.5137 36.9642 36.1449 37.3288 37.3614 37.6434C37.343 37.8618 37.2924 38.1509 37.1891 38.4471C37.0525 38.8386 36.8316 39.2211 36.4935 39.4778C35.5355 40.205 33.63 41.4076 31.2586 41.6476C30.3252 41.7421 29.0987 41.5648 27.928 41.2952C27.0126 41.0844 26.1465 40.8207 25.507 40.5994C26.821 39.7834 29.3006 38.3855 31.3598 37.6908Z" fill="white"/>
<path fill-rule="evenodd" clip-rule="evenodd" d="M36.5247 12.7669C34.9187 10.242 30.5987 4.55682 30.0205 4.94777C29.4424 5.33873 31.225 11.4637 32.1886 14.4773C27.9327 15.699 18.7466 18.729 16.0486 21.0746C15.6227 21.4449 15.07 21.8932 14.4304 22.4119C10.0048 26.0011 1.41483 32.9676 1.83578 40.8668C2.31757 49.9076 9.78532 57.4824 16.0486 58.2154C22.3119 58.9485 31.4659 56.7493 37.2474 50.885C41.8725 46.1936 43.8318 40.7854 44.2333 38.6676C45.0363 39.9709 46.8832 42.7727 47.8468 43.5546C48.8104 44.3366 49.6936 45.0207 50.0148 45.2651C49.8542 46.894 49.8221 50.6407 50.9784 52.5954C52.4238 55.0389 55.5554 57.4824 58.2053 59.1928C60.3252 60.5612 61.9793 63.6725 62.5414 65.0571C64.2277 61.8806 67.2148 54.5991 65.673 50.885C64.1313 47.171 58.6068 43.799 56.0372 42.5773C55.7964 41.3554 55.1218 38.521 54.3509 36.9573C53.5801 35.3934 52.4238 33.6993 51.942 33.0477C53.7888 32.396 57.8198 30.4087 59.1689 27.672C60.8552 24.2512 62.0596 21.0746 60.1324 18.8756C58.2053 16.6765 53.1465 14.4774 46.1605 12.7669C40.5717 11.3985 38.0503 12.1968 36.5247 12.7669ZM37.6804 37.2202C36.5229 36.8854 33.6102 36.4122 31.2058 37.2233C28.8394 38.0217 25.9622 39.7106 24.8205 40.4534L24.4123 40.719L24.8667 40.8914C25.5253 41.1414 26.6315 41.5021 27.82 41.7758C29.0031 42.0483 30.2926 42.2408 31.3071 42.1381C33.8054 41.8853 35.7958 40.6236 36.7856 39.8721C37.2267 39.5373 37.4927 39.0574 37.6483 38.6111C37.8041 38.1644 37.857 37.73 37.857 37.4571V37.2713L37.6804 37.2202Z" fill="white"/>
<path fill-rule="evenodd" clip-rule="evenodd" d="M30.9966 7.66445C30.3198 8.14761 30.466 9.01659 31.6714 11.6737C32.4958 13.4909 32.7366 14.213 32.6701 14.6692C32.5633 15.4041 33.4614 18.2349 35.2627 22.8408C36.7351 26.6059 38.1487 29.5543 40.549 33.8667L42.223 36.8745L41.8118 37.2629C41.5857 37.4765 41.0147 38.3728 40.543 39.2546C40.0712 40.1364 38.6695 42.4258 37.4278 44.342C34.3025 49.1652 30.5494 52.847 25.0463 54.5162C20.3719 55.9347 15.0259 54.9914 10.7802 52.6989C8.31403 51.3673 7.73487 50.9085 5.57132 48.5724C3.99746 46.8731 2.79489 44.6648 2.79489 44.6648C2.79489 44.6648 2.60859 46.575 4.42448 50.5257C8.07672 58.4717 20.0258 59.4635 27.0718 57.1108C36.2755 54.038 40.6962 49.4339 44.4673 40.3358L44.2821 38.4608C44.2821 38.4608 48.655 43.7748 49.3797 44.5367C51.3449 46.6018 51.2231 46.3516 51.2231 48.3245C51.2231 50.4365 51.6256 51.8131 52.8831 54.0028C54.0488 56.0323 56.4507 58.4123 59.2235 60.2845L60.5604 61.1873L60.5241 62.0329C60.495 62.7173 60.5703 62.9465 60.9198 63.235C61.6972 63.8766 62.336 63.6282 63.0242 62.4166C63.2759 61.9732 63.5366 61.3133 63.6033 60.9501C63.6946 60.4542 63.8706 60.2195 64.3111 60.0068C65.5982 59.3857 66.2078 57.4788 66.0865 54.4527C66.0055 52.4263 65.5817 51.174 64.8403 50.7694C64.3562 50.5055 63.9021 50.7162 63.9021 51.2051C63.9021 51.5078 63.7535 51.3789 63.3004 50.6812C62.581 49.5736 61.8318 48.9651 61.3969 49.1353C61.0579 49.2679 61.0512 49.1712 61.5819 51.8507C62.0514 54.2208 61.9357 54.4567 60.9839 53.0702C59.6367 51.1082 58.3391 49.6305 57.9629 49.6305C57.4527 49.6305 57.5147 50.002 58.3672 52.052C58.7842 53.0549 59.2455 54.1725 59.392 54.5357L59.6585 55.196L58.9038 54.347C57.4334 52.6935 56.1684 51.0353 55.7833 50.2565C55.3039 49.2873 54.2772 46.4471 54.2772 46.0903C54.2772 45.947 54.7262 45.4112 55.2752 44.8999C56.3454 43.9029 56.7791 43.0505 56.9727 41.5632C57.1681 40.0614 56.4478 39.184 55.3868 39.632C54.8434 39.8614 54.5667 40.3845 54.3814 41.5325C54.3214 41.9036 54.0321 42.5424 54.0321 42.5424C53.5863 42.9605 52.5526 41.6642 52.2431 41.3612L53.2507 40.2926C54.4995 38.9677 54.985 37.821 54.6478 36.9914C54.2337 35.9721 53.1028 35.9691 52.5212 36.9856C52.3163 37.3438 51.7046 38.0941 51.1619 38.653L50.1753 39.6687C49.953 39.456 49.2797 38.6708 49.2797 38.6708C49.2797 38.6708 52.056 36.8184 52.056 35.2188C52.056 34.5308 51.7759 34.1604 51.2551 34.1604C51.0536 34.1604 50.3922 34.7133 49.7333 35.4327C49.0923 36.1326 48.5296 36.6632 48.4828 36.6119C48.4359 36.5605 47.6001 35.2876 46.6254 33.7831C45.6509 32.2785 44.1935 30.0712 43.3868 28.878C42.5803 27.6847 41.7343 26.3263 41.507 25.8594C41.2795 25.3925 40.3432 23.713 39.4261 22.1273C38.4791 20.4899 37.0487 17.5959 36.1158 15.4299C33.7213 9.87046 32.9618 8.32514 32.3756 7.82086C31.7617 7.2926 31.5511 7.26865 30.9966 7.66445ZM35.6884 11.6289C35.2799 12.0455 35.3171 12.2547 35.9992 13.3739C37.7993 16.3268 49.0629 32.5265 49.7635 33.17C50.4106 33.7642 51.0324 33.7144 51.53 33.0285C51.7558 32.7172 52.0511 32.4625 52.1862 32.4625C52.7715 32.4625 55.6809 31.096 56.7352 30.3259C58.3624 29.1375 60.4919 26.832 60.9344 25.7795C61.4944 24.4482 61.8662 22.8091 61.8641 21.6817C61.3969 17.9892 57.9629 17.9892 57.9629 17.9892C57.9629 17.9892 59.3872 19.5313 59.2235 21.145C58.811 25.2051 56.2297 28.1073 52.5077 29.6277L50.7678 30.3385L48.2191 26.6791C46.8174 24.6665 45.6459 22.9476 45.6163 22.8591C45.5865 22.7708 45.9196 22.5106 46.3567 22.281C48.0019 21.4166 48.6862 20.2864 48.3396 19.0065C48.122 18.2036 47.5343 17.646 46.521 17.2818C45.54 16.929 43.5127 16.9186 42.5702 17.2614L41.8764 17.5137L40.5076 15.6024C38.4413 12.7173 37.0246 11.3325 36.1391 11.3325C36.0512 11.3325 35.8485 11.466 35.6884 11.6289ZM27.5312 21.145C26.1902 21.3914 25.055 21.8351 24.3354 22.3946C21.7098 24.436 23.158 27.3634 26.7908 27.3587C30.4919 27.3539 32.5539 26.5659 32.9649 24.9995C33.3383 23.5766 32.7003 22.0584 31.4506 21.3959C30.7986 21.0503 28.7579 20.9195 27.5312 21.145ZM17.8138 27.6194C16.371 28.0299 15.1833 28.7445 13.8972 29.9756C11.9019 31.8855 11.349 33.6639 12.367 34.897C13.2666 35.9867 14.6392 36.0231 16.564 35.0087C18.9997 33.7249 20.6207 31.8677 21.0429 29.8773C21.19 29.1836 20.7927 28.1544 20.2428 27.8043C19.6725 27.4413 18.6998 27.3672 17.8138 27.6194ZM34.5647 34.0766C33.6184 34.4063 23.4552 35.3067 27.1761 38.2895C27.9454 38.9062 28.2782 38.9264 29.2381 38.4147C30.2934 37.8523 33.3602 37.0511 35.2627 36.9914C38.4442 36.8917 37.769 38.1128 37.769 38.1128C37.769 38.1128 38.5184 35.1249 37.1954 34.547C36.4362 34.2152 34.9371 33.9472 34.5647 34.0766ZM10.5026 39.7889C9.60228 40.2253 9.04053 40.8236 8.66053 41.7506C8.29071 42.6526 8.30625 43.4525 8.71735 44.6648C9.4592 46.8529 10.562 47.7605 12.5377 47.8092C13.6525 47.8366 13.7562 47.8015 14.3855 47.1808C15.73 45.8549 15.9976 42.9653 14.9372 41.225C13.9953 39.6789 12.0377 39.0448 10.5026 39.7889Z" fill="black"/>
<path fill-rule="evenodd" clip-rule="evenodd" d="M27.8341 2.92871C27.3919 3.37579 27.2954 3.75248 27.3765 4.71342C27.4164 5.18734 28.8053 8.74588 30.1259 11.7584C30.5331 12.6875 30.8072 13.5118 30.735 13.5904C30.6626 13.6688 28.9879 14.286 27.0133 14.9617C25.0388 15.6372 23.1735 16.3206 22.8684 16.4802C22.5634 16.6398 21.2613 17.1912 19.9752 17.7059C15.4925 19.4988 14.5764 20.1495 9.15128 25.3924C5.91432 28.5207 4.60259 30.1502 2.9032 33.1543C0.476968 37.4437 -0.234665 41.6269 0.86034 45.1635C1.28843 46.5458 3.56436 50.8054 4.60945 52.18C5.58662 53.4653 7.34409 54.9733 9.05683 55.9962C9.79537 56.4371 10.8494 57.114 11.399 57.5005C12.8468 58.5183 14.0917 58.9224 16.7579 59.2398C23.7708 60.075 28.3025 59.0608 33.1531 55.5703C37.0746 52.7483 40.4206 49.5487 41.9407 47.1671C42.6907 45.9922 43.4999 44.3679 44.5134 42.0032L44.7431 41.4676L45.4219 42.5015C46.4054 43.9999 47.2074 44.8703 48.2091 45.5267L49.0916 46.1051L49.1673 48.2635C49.2939 51.8645 50.1564 54.2079 52.0078 55.9806C52.5969 56.5448 54.3733 57.932 55.9552 59.0632C57.5371 60.1944 59.1763 61.4667 59.5981 61.8905C60.3831 62.6796 61.8932 65.5174 61.8932 66.2035C61.8932 67.0624 62.9575 67.3374 63.4665 66.6099C63.6289 66.3775 63.9399 65.5963 64.1576 64.8737C64.3751 64.1512 64.9157 62.832 65.3586 61.9421C67.3229 57.9964 67.6256 53.0825 66.1434 49.2019C64.8691 45.8659 61.8919 43.1684 58.4919 42.2691L57.3508 41.9673L57.2968 41.1271C57.1925 39.5004 56.5795 38.1254 54.7491 35.4139L53.546 33.6316L55.69 32.5892C58.6048 31.172 59.8181 29.9487 61.2452 26.9885C62.8518 23.6559 62.9968 21.5431 61.79 19.0426C61.0998 17.6118 59.6976 16.4328 56.9595 14.9808C52.7784 12.7635 50.7975 12.0983 45.6422 11.1798C42.6149 10.6404 40.8949 10.6489 38.168 11.2162C37.4175 11.3723 36.7827 11.4739 36.7572 11.4416C36.7318 11.4094 35.5602 9.77834 34.1534 7.81701C32.7466 5.85569 31.3357 3.96925 31.018 3.62503C29.8736 2.38499 28.6387 2.11491 27.8341 2.92871ZM33.5695 11.1401C35.5979 13.9559 36.6448 15.0589 37.6134 15.4005C38.2677 15.6312 38.43 15.3776 38.25 14.4063C38.1043 13.6204 38.1642 13.5933 40.6411 13.3196C42.3732 13.1283 42.7298 13.1507 45.3182 13.6124C50.1294 14.4705 51.3243 14.8551 55.0618 16.7488C58.8439 18.6651 59.6263 19.3911 60.0446 21.3721C60.3261 22.7046 60.0372 24.0147 59.0002 26.1099C57.8813 28.3707 56.6953 29.4699 54.0619 30.6863L52.092 31.5963L51.101 30.8561C50.1749 30.1643 49.0532 29.4948 48.8203 29.4948C48.309 29.4948 50.1213 33.3095 51.1058 34.306C51.5 34.705 52.1781 35.7495 52.6126 36.627C53.0471 37.5043 53.5262 38.2947 53.6772 38.3832C54.4252 38.8209 55.1356 41.6858 54.6774 42.4171C54.5568 42.6095 55.2372 43.0398 57.4961 44.2001C61.6438 46.3307 63.1567 47.8113 64.1094 50.6719C64.6059 52.1624 64.5907 53.3248 64.0388 56.125C63.584 58.4322 63.0916 59.6121 62.2694 60.3647C61.865 60.7347 61.8646 60.7347 61.5121 60.2706C61.3179 60.0151 61.1572 59.721 61.155 59.617C61.1504 59.4007 59.1522 58.021 58.1819 57.5643C57.0456 57.0292 53.5689 54.3025 52.9866 53.4895C52.2459 52.4553 51.7184 50.671 51.5922 48.7719C51.5359 47.9246 51.3928 46.4923 51.2742 45.589C51.0802 44.1123 51.019 43.9467 50.667 43.9467C50.1335 43.9467 48.6113 42.9458 48.3316 42.4109C48.2062 42.1718 47.8344 41.6382 47.5049 41.2252C47.1755 40.8124 46.2187 39.2695 45.3789 37.797C43.4972 34.4978 42.8567 33.9068 42.0063 34.6853C41.4898 35.1581 41.5962 35.9734 42.3583 37.383L43.0497 38.6618L42.5158 40.225C40.6683 45.633 38.4792 48.4799 32.969 52.6396C30.0397 54.8509 28.5109 55.6817 25.9868 56.4339C23.8681 57.0653 21.8568 57.1919 18.3591 56.9145C15.0009 56.648 14.0537 56.3928 12.6198 55.3685C12.011 54.9335 10.7614 54.0762 9.84287 53.4632C7.07038 51.6131 6.29492 50.6974 4.299 46.9164C2.91712 44.2986 2.59888 42.8598 2.88168 40.5068C3.12587 38.4756 3.59312 36.9986 4.58365 35.1254C6.15147 32.161 7.34798 30.6046 10.3047 27.6842C15.5152 22.5377 16.8139 21.5644 20.2491 20.2309C21.1594 19.8774 22.5725 19.2901 23.3889 18.9258C25.6032 17.9378 31.7129 15.9016 31.7871 16.1268C31.8222 16.2333 32.2733 17.0369 32.7897 17.9131C33.8501 19.7121 34.3895 20.1158 35.1022 19.6433C35.7176 19.2357 35.6674 18.5788 34.8964 16.9519C34.5407 16.2009 33.8773 14.6345 33.4223 13.4707C32.9671 12.3069 32.298 10.6716 31.935 9.8369C30.8675 7.38102 30.8537 7.36995 33.5695 11.1401ZM34.2354 34.3443C34.0037 34.534 33.8718 34.7833 33.9419 34.8983C34.0122 35.0132 34.6131 35.3778 35.2772 35.7086C35.9415 36.0393 36.5219 36.3706 36.5673 36.4447C36.6125 36.5188 35.9174 36.5373 35.0224 36.4856C33.5552 36.401 31.5336 36.5735 29.806 36.9306C29.267 37.0421 29.1893 37.016 29.288 36.7557C29.4436 36.3455 28.7612 35.8761 28.0094 35.8761C26.277 35.8761 24.1674 37.811 23.7636 39.7701C23.4608 41.2403 24.5776 42.6251 26.3932 43.0296C27.9457 43.3756 31.8361 43.3253 33.2956 42.9401C35.9227 42.2471 37.8526 40.6768 38.9342 38.3522C39.788 36.5171 39.4327 35.3169 37.7726 34.4289C36.7281 33.8701 34.8686 33.8257 34.2354 34.3443ZM35.8465 38.769C34.6662 40.3343 31.3262 41.1851 27.984 40.7716C26.5144 40.5898 26.084 40.4755 26.2806 40.3191C26.4852 40.1564 30.5936 38.8505 31.7393 38.5841C32.9137 38.3109 36.0874 37.9502 36.265 38.0697C36.3048 38.0963 36.1164 38.4111 35.8465 38.769Z" fill="#323239"/>
</g>
<defs>
<clipPath id="clip0_21_433">
<rect width="68.1765" height="69" fill="white" transform="translate(0.359985)"/>
</clipPath>
</defs>
</svg>
