<svg width="69" height="69" viewBox="0 0 69 69" fill="none" xmlns="http://www.w3.org/2000/svg">
<g clip-path="url(#clip0_21_404)">
<path d="M25.8644 5.00802C27.0461 4.45002 28.2278 5.38502 28.878 6.33102C29.5973 7.37802 29.8917 8.64602 30.1901 9.86702C30.5172 11.206 30.8314 12.665 31.4202 13.917C31.5803 14.257 31.5457 14.377 31.5536 14.717C31.5645 15.199 32.018 15.495 32.4617 15.433C32.9132 15.407 33.3509 15.32 33.7521 15.228C35.5187 14.823 37.2923 14.454 39.0521 14.016C40.0591 13.759 41.0704 13.5193 42.0854 13.297C43.0764 13.086 44.0734 13.018 45.1385 12.948C48.3656 12.738 51.555 12.132 54.705 11.404C55.1536 11.3 55.6476 11.477 56.0932 11.557C57.4864 11.807 58.6029 12.54 59.3746 13.76C60.1848 15.041 60.1433 15.691 60.6986 17.376C61.5631 20.002 61.7677 22.779 62.3921 25.464C63.1114 28.559 63.729 31.829 64.9176 34.768C65.8187 36.999 66.3938 39.405 66.8246 41.806C67.0706 43.174 67.1299 44.289 66.8305 45.653C66.7643 45.956 66.4521 46.414 65.9215 46.942C65.4487 47.402 64.9398 47.8224 64.3999 48.199C63.2903 48.976 62.1254 50.078 61.5157 51.312C61.4663 51.3994 61.4349 51.4961 61.4237 51.5962C61.4125 51.6963 61.4216 51.7977 61.4504 51.8941C61.4792 51.9905 61.5272 52.0799 61.5914 52.1569C61.6555 52.2339 61.7346 52.2968 61.8236 52.3418C61.9127 52.3868 62.0098 52.4129 62.1092 52.4186C62.2086 52.4242 62.3081 52.4093 62.4015 52.3747C62.495 52.3401 62.5805 52.2865 62.6528 52.2172C62.7251 52.148 62.7826 52.0646 62.8219 51.972C63.0057 51.602 63.393 51.106 63.8732 50.607C64.8139 49.631 65.9847 48.95 66.9451 47.997C67.4925 47.452 68.0903 46.733 68.2563 45.974C68.5972 44.422 68.5418 43.097 68.2622 41.541C67.8225 39.092 67.2248 36.574 66.2693 34.208C65.6686 32.723 65.2417 31.148 64.9255 29.548C64.7526 28.668 64.5175 27.805 64.2833 26.941C64.1158 26.3387 63.9593 25.7332 63.814 25.125C63.4859 23.714 63.2942 22.413 63.062 21.063C62.7528 19.27 62.239 17.563 61.7647 15.815C61.5177 14.901 61.2825 14.035 60.6047 12.963C59.9645 11.95 58.8934 10.862 57.8184 10.333C57.0319 9.94702 55.203 9.77202 54.3799 9.96302C51.7131 10.579 49.8822 10.919 47.173 11.285C45.3806 11.527 43.5596 11.472 41.7841 11.85C40.7476 12.07 39.717 12.328 38.7013 12.58C37.3674 12.913 36.0612 13.238 34.753 13.483C34.1631 13.593 33.5871 13.768 32.9962 13.877C32.849 13.475 32.6296 13.105 32.4874 12.701C32.1356 11.705 31.8807 10.626 31.6307 9.60102C31.3135 8.30102 30.9647 6.77802 30.0775 5.48702C29.5864 4.77302 28.8997 4.09702 28.0776 3.70502C27.2378 3.30302 26.2457 3.19602 25.2468 3.66802C24.5562 3.99402 23.8645 4.32302 23.2351 4.76202C22.7193 5.12002 22.4121 5.67302 22.2075 6.13602C22.0228 6.55302 21.8913 6.99002 21.7224 7.41302C21.6801 7.50407 21.6567 7.60289 21.6534 7.70343C21.6502 7.80397 21.6672 7.90413 21.7035 7.99778C21.7398 8.09143 21.7945 8.17661 21.8644 8.24812C21.9344 8.31962 22.0179 8.37595 22.1101 8.41367C22.2022 8.45138 22.301 8.46968 22.4004 8.46745C22.4997 8.46523 22.5976 8.44252 22.688 8.40072C22.7784 8.35891 22.8595 8.2989 22.9262 8.22433C22.9929 8.14976 23.0439 8.06221 23.076 7.96702C23.3369 7.31702 23.4634 6.39702 24.0631 5.98002C24.6046 5.60302 25.1925 5.32502 25.8495 5.01502L25.8644 5.00802Z" fill="#00FAFA"/>
<path d="M27.7693 6.43002L31.5042 16.04C38.4582 14.937 52.7674 12.637 54.3858 12.259C56.4094 11.786 58.4329 12.574 59.0564 14.779C59.6789 16.985 64.8149 38.094 65.4373 39.984C66.0598 41.874 66.3721 43.135 66.2159 44.238C66.0608 45.341 62.0137 50.224 60.3014 51.012C58.5891 51.8 52.051 54.005 44.1129 55.895C36.1748 57.785 18.4302 62.355 16.0954 62.985C13.7606 63.615 11.4258 63.457 10.492 61.882C9.55833 60.306 8.31238 56.841 5.19997 44.711C2.08658 32.58 1.4641 29.902 1.77534 28.8C2.08658 27.697 4.73262 21.553 6.1327 21.08C7.25416 20.702 20.1939 18.192 26.5244 16.985L23.7222 9.42202C23.7746 8.73902 24.158 7.18502 25.2794 6.42902C26.3999 5.67302 27.4057 6.11502 27.7693 6.43002Z" fill="white"/>
<path fill-rule="evenodd" clip-rule="evenodd" d="M23.991 8.42299C23.1245 9.05099 23.1156 9.35399 23.9209 10.953C24.3032 11.714 25.0571 13.293 25.5946 14.463L26.6795 17.078H28.8888C28.8058 16.507 25.8841 9.12799 25.5294 8.59299C25.0927 7.93699 24.7192 7.89499 23.991 8.42299ZM2.2437 27.303C1.61529 29.742 1.56293 30.2 1.76252 31.519C1.86527 32.195 2.05597 33.048 2.18738 33.413C2.31978 33.778 2.59743 34.892 2.80492 35.888C4.06174 41.92 5.30374 46.445 7.68893 53.69C8.4448 55.986 9.14534 58.183 9.24414 58.573C9.58799 59.92 10.4693 61.498 11.2519 62.166C12.7666 63.458 13.3407 63.661 14.2823 63.235C14.552 63.113 15.1923 62.977 15.7061 62.932C25.2992 61.094 45.8905 55.58 57.4993 51.944C59.2867 51.531 59.7244 51.3 62.0799 49.527C63.8822 48.17 66.0608 45.025 66.0608 45.025L65.5668 43.292C65.5668 43.292 64.971 44.996 62.6362 45.655C61.823 45.885 60.4378 46.265 59.3677 46.598C58.2966 46.931 56.861 47.323 56.1762 47.468C53.8839 47.953 42.1694 51.162 40.8869 51.655C40.465 51.818 38.9187 52.262 35.1631 53.298C34.1355 53.581 31.194 54.429 28.626 55.183C26.0571 55.936 23.08 56.75 22.0099 56.991C20.9399 57.232 19.5516 57.585 18.9242 57.775C16.6586 58.463 15.2783 58.485 14.0531 57.852C13.4345 57.532 12.2271 54.457 11.1155 50.368C10.716 48.8958 10.3086 47.4257 9.8933 45.958C8.64439 41.6 7.53183 37.312 6.74631 33.84C6.24503 31.7016 5.68259 29.5784 5.05969 27.473C4.83342 26.734 4.5617 24.861 5.19999 22.025C5.19999 22.025 2.47886 26.389 2.2437 27.303ZM42.9362 23.748C42.1329 23.943 40.8197 24.75 40.3929 25.311C40.1706 25.604 39.7309 26.152 39.4167 26.529C38.6816 27.411 38.4187 28.55 38.6559 29.839C38.8683 31.007 39.3851 31.879 40.4502 32.863C42.1536 34.439 44.0448 34.715 45.9804 33.67C46.514 33.382 47.1364 32.905 47.3617 32.61C47.587 32.315 48.0583 31.726 48.4091 31.301C48.7588 30.877 49.1264 30.256 49.2252 29.922C49.4772 29.072 49.4495 27.747 49.16 26.761C48.5168 24.566 45.5298 23.121 42.9362 23.748ZM45.8905 25.77C46.921 26.349 47.2342 26.822 47.335 27.956C47.4743 29.51 46.7521 30.588 45.2937 31.001C44.3382 31.271 43.5932 31.098 42.868 30.434C41.706 29.372 41.2515 27.614 41.8414 26.464C42.4244 25.325 44.4726 24.974 45.8905 25.77ZM23.8784 26.279C23.7499 26.363 23.3814 26.433 23.0593 26.434C22.3064 26.437 19.9429 26.97 18.857 27.381C17.7208 27.811 17.2702 28.317 17.2702 29.161C17.2702 29.669 17.1813 29.899 16.8819 30.159C16.544 30.453 16.4985 30.609 16.5301 31.374C16.5499 31.856 16.7001 32.684 16.8631 33.214C17.0746 33.903 17.1072 34.191 16.9777 34.229C14.9482 34.83 14.9443 34.833 14.5303 35.652C14.3129 36.085 13.9157 36.658 13.6509 36.925C12.9415 37.637 12.815 38.289 13.0818 39.855C13.3713 41.547 13.8821 43.297 14.1894 43.647C14.3811 43.865 14.6795 43.922 15.6142 43.917C16.7416 43.913 18.8452 43.695 19.359 43.53C19.5556 43.467 19.6692 43.778 19.9518 45.143C20.4399 47.508 20.7966 48.18 21.7501 48.532C22.4763 48.8 22.5425 48.799 23.8507 48.485C25.8466 48.007 27.6133 47.389 27.9443 47.054C28.1221 46.873 28.2387 46.529 28.2427 46.167C28.2476 45.677 28.3326 45.523 28.7485 45.26C29.0825 45.047 29.3167 44.724 29.456 44.282C29.6398 43.695 29.6259 43.475 29.3394 42.327C29.1616 41.615 29.0331 41.022 29.0548 41.007C29.0746 40.994 29.4748 40.847 29.9421 40.68C30.5567 40.462 30.8926 40.228 31.1525 39.837C31.3501 39.54 31.7206 39.194 31.9746 39.069C32.6899 38.719 32.8599 37.874 32.5397 36.267C32.2898 35.009 31.3936 32.067 31.1387 31.664C30.8521 31.211 30.2741 31.157 29.0459 31.468C28.4848 31.6119 27.9212 31.7459 27.3554 31.87C26.804 31.98 26.9216 32.236 26.0521 29.036C25.6421 27.524 25.2488 26.701 24.7795 26.368C24.3783 26.083 24.2034 26.067 23.8784 26.279ZM24.244 30.926C24.5503 32.139 24.822 33.337 24.8467 33.589C24.8724 33.863 25.0532 34.169 25.2992 34.353L25.7083 34.661L27.7536 34.148C28.877 33.866 29.8186 33.663 29.8443 33.698C29.9451 33.832 30.9055 37.019 30.8571 37.054C30.8274 37.075 30.4895 37.181 30.1042 37.29C27.1765 38.12 26.807 38.282 26.5817 38.827C26.3861 39.301 26.4039 39.531 26.7596 41.127C26.975 42.101 27.1894 43.017 27.2338 43.163C27.301 43.376 27.0698 43.503 26.0254 43.825C25.315 44.043 24.4416 44.27 24.0839 44.327L23.4328 44.432L23.2747 43.822C23.1887 43.488 22.9713 42.612 22.7915 41.875C22.3597 40.099 22.1888 39.691 21.7511 39.401C21.4171 39.18 21.259 39.188 19.9469 39.496C19.1554 39.682 18.2276 39.932 17.8858 40.052L17.2643 40.27L16.8493 38.67C16.622 37.79 16.4126 36.968 16.3829 36.843C16.3414 36.67 16.7851 36.52 18.2336 36.213C20.766 35.677 20.8697 35.576 20.6266 33.891C20.5278 33.21 20.2512 31.893 20.0111 30.964L19.5744 29.276L20.1306 29.183C20.7844 29.066 21.4369 28.942 22.088 28.811C22.8587 28.658 23.5325 28.575 23.5869 28.627C23.6402 28.678 23.9357 29.713 24.243 30.926H24.244ZM52.2329 30.216C50.9978 30.512 49.2035 32.106 48.8616 33.212C48.7944 33.428 48.5751 33.804 48.3725 34.049C47.8883 34.636 47.7915 35.079 47.8884 36.297C48.0415 38.226 49.3576 40.18 50.895 40.762C51.978 41.172 52.8336 41.172 54.1458 40.762C54.9066 40.525 55.3245 40.283 55.7138 39.857C56.0063 39.537 56.5952 38.896 57.023 38.432C57.9804 37.394 58.433 36.255 58.433 34.886C58.433 33.556 58.0773 32.581 57.2473 31.648C56.2533 30.528 55.2317 30.055 53.8503 30.076C53.2456 30.085 52.5184 30.148 52.2329 30.216ZM54.7821 32.246C56.0093 32.81 56.525 33.831 56.3758 35.401C56.2503 36.724 55.2297 37.64 53.7634 37.741C52.5362 37.825 51.6479 37.336 51.145 36.301C50.5927 35.165 50.5462 34.474 50.9612 33.605C51.6371 32.192 53.3444 31.585 54.7821 32.246Z" fill="black"/>
<path fill-rule="evenodd" clip-rule="evenodd" d="M25.0462 5.51196C23.2539 6.38596 22.2253 8.59396 22.83 10.265C22.9555 10.612 23.2855 11.534 23.5631 12.313C23.8408 13.093 24.3101 14.323 24.6055 15.047C24.902 15.77 25.0976 16.408 25.0423 16.464C24.9366 16.572 22.6877 16.994 16.4955 18.067C14.4482 18.422 11.7162 18.951 10.4258 19.242C9.13542 19.533 7.65925 19.848 7.14545 19.942C5.79872 20.19 4.6417 20.811 4.08937 21.582C3.83346 21.94 2.96298 23.566 2.15474 25.195C1.07676 27.37 0.685486 28.317 0.685486 28.753C0.685486 31.131 2.13399 38.191 3.69711 43.426C4.15162 44.953 5.47365 49.993 6.15344 52.8C6.76999 55.345 8.38251 60.167 8.95954 61.19C9.64822 62.412 10.5829 63.549 11.1362 63.839C11.405 63.979 12.2972 64.232 13.1203 64.4L14.6162 64.706L16.0953 64.317C16.9085 64.103 19.0447 63.535 20.843 63.055C23.9811 62.217 26.475 61.559 31.3491 60.282C32.5901 59.957 34.2718 59.507 35.085 59.282C35.8981 59.058 38.4543 58.402 40.7663 57.824C43.0784 57.247 45.9142 56.439 47.0702 56.029C49.2835 55.244 54.4935 53.613 57.8668 52.65C58.9675 52.336 60.2026 51.907 60.6106 51.698C61.0444 51.475 62.1846 50.491 63.3565 49.328C64.4582 48.235 65.5085 47.236 65.6913 47.11C65.8741 46.984 66.2466 46.456 66.5202 45.937C66.9204 45.177 67.0469 44.694 67.1724 43.461L67.3265 41.93L65.8207 36.652C64.9937 33.75 63.9088 29.602 63.4098 27.437C62.9118 25.271 62.4316 23.308 62.3447 23.077C62.2568 22.845 62.0097 21.817 61.7953 20.792C61.3082 18.459 59.7955 13.96 59.2086 13.097C58.7135 12.368 57.9853 11.767 57.2206 11.455C56.5329 11.175 54.5805 11.306 51.8949 11.815C50.7399 12.033 48.4288 12.397 46.759 12.623C45.0891 12.85 42.3225 13.313 40.6102 13.653C38.8989 13.992 36.4534 14.451 35.1778 14.673C33.9023 14.895 32.6978 15.117 32.5032 15.166C32.1889 15.246 32.1218 15.168 31.9202 14.494C31.7957 14.074 31.3283 12.774 30.8827 11.604C30.4381 10.434 29.7959 8.69796 29.4579 7.74396C28.6546 5.48396 28.4224 5.24496 26.9512 5.18096C26.0145 5.14096 25.6914 5.19596 25.0452 5.51096L25.0462 5.51196ZM27.0589 7.53196C27.3267 7.65596 27.5529 7.98596 27.7664 8.55996C27.9383 9.02496 28.2653 9.77596 28.4926 10.23C28.8602 10.961 30.1427 14.46 30.36 15.318C30.4341 15.616 30.3205 15.671 29.0835 15.934C28.2268 16.116 27.6448 16.17 27.5055 16.08C27.384 16.001 27.1212 15.547 26.9226 15.07C26.723 14.594 26.2665 13.53 25.9078 12.707C25.5581 11.9055 25.2109 11.1028 24.8664 10.299L24.4781 9.38796L24.8219 8.66896C25.1618 7.95796 25.8871 7.35296 26.3999 7.35196C26.5461 7.35196 26.8425 7.43196 27.0589 7.53196ZM56.9607 13.563C57.3777 13.84 58.3499 15.687 58.8776 17.205C59.0604 17.729 59.4151 19.183 59.666 20.435C60.7658 25.924 62.3318 32.296 64.0392 38.228C65.548 43.473 65.549 43.253 64.0096 45.56C62.6628 47.581 61.5908 48.832 60.4733 49.686C59.6512 50.315 57.7828 51.124 56.5655 51.378C55.5853 51.583 50.1688 53.193 47.2263 54.154C45.6424 54.671 42.6308 55.518 40.5332 56.037C33.2323 57.841 31.5734 58.239 30.0261 58.554C29.1704 58.728 27.0342 59.257 25.2784 59.728C21.7777 60.669 16.2406 62.048 14.7713 62.346C12.0196 62.903 11.0068 61.826 9.27572 56.502C8.83999 55.159 8.09597 52.572 7.62368 50.752C7.15237 48.932 6.36883 46.062 5.88271 44.372C5.39658 42.682 4.83437 40.626 4.6328 39.803C4.43124 38.98 4.05577 37.527 3.79789 36.573C3.45681 35.2673 3.14385 33.9544 2.85923 32.635C2.30097 30.023 2.33555 29.408 3.13885 27.673C3.44021 27.023 4.01922 25.725 4.4263 24.789C4.83338 23.853 5.29382 22.944 5.44993 22.77C5.91235 22.253 7.83315 21.425 9.16901 21.166C9.85374 21.033 11.3941 20.77 12.5927 20.579C13.7912 20.389 15.9975 20.026 17.4964 19.772C18.9943 19.518 21.5159 19.101 23.0987 18.845C29.3522 17.837 30.0439 17.713 30.6476 17.495C31.6929 17.114 41.3404 15.395 47.7707 14.443C50.1678 14.088 52.8642 13.661 53.7633 13.494C55.5616 13.16 56.3788 13.178 56.9607 13.564V13.563Z" fill="#323239"/>
</g>
<defs>
<clipPath id="clip0_21_404">
<rect width="68.1765" height="69" fill="white" transform="translate(0.374268)"/>
</clipPath>
</defs>
</svg>
