<svg width="12" height="24" viewBox="0 0 12 24" fill="none" xmlns="http://www.w3.org/2000/svg">
<g clip-path="url(#clip0_67_2201)">
<path d="M3.74998 6C3.74998 6.99456 3.35489 7.94839 2.65163 8.65165C1.94837 9.35491 0.994538 9.75 -2.3365e-05 9.75C-0.994585 9.75 -1.94841 9.35491 -2.65167 8.65165C-3.35494 7.94839 -3.75002 6.99456 -3.75002 6C-3.75002 5.00544 -3.35494 4.05161 -2.65167 3.34835C-1.94841 2.64509 -0.994585 2.25 -2.3365e-05 2.25C0.994538 2.25 1.94837 2.64509 2.65163 3.34835C3.35489 4.05161 3.74998 5.00544 3.74998 6ZM-7.49902 20.118C-7.46689 18.1504 -6.66269 16.2742 -5.25985 14.894C-3.85701 13.5139 -1.96794 12.7405 -2.3365e-05 12.7405C1.96789 12.7405 3.85696 13.5139 5.2598 14.894C6.66264 16.2742 7.46684 18.1504 7.49898 20.118C5.14637 21.1968 2.58812 21.7535 -2.3365e-05 21.75C-2.67602 21.75 -5.21602 21.166 -7.49902 20.118Z" stroke="black" stroke-width="1.5" stroke-linecap="round" stroke-linejoin="round"/>
</g>
<defs>
<clipPath id="clip0_67_2201">
<rect width="12" height="24" fill="white"/>
</clipPath>
</defs>
</svg>
