<svg width="30" height="30" viewBox="0 0 30 30" fill="none" xmlns="http://www.w3.org/2000/svg">
<path d="M0 5.59702C0 2.50588 2.50587 0 5.59701 0V22.8571H0V5.59702Z" fill="white"/>
<path d="M16.3646 30C20.3095 30 23.5074 26.802 23.5074 22.8571L5.597 22.8571V30L16.3646 30Z" fill="white"/>
<path d="M29.1045 12.7398C29.1045 9.64869 26.5986 7.14282 23.5075 7.14282L23.5075 22.8571H29.1045L29.1045 12.7398Z" fill="white"/>
<path d="M12.7399 0C8.79501 0 5.59705 3.19797 5.59705 7.14286L23.5075 7.14286L23.5075 0L12.7399 0Z" fill="white"/>
<path d="M0.895508 5.59702C0.895508 2.50588 3.40138 0 6.49252 0V22.8571H0.895508V5.59702Z" fill="#DC84F7"/>
<path d="M17.2601 30C21.205 30 24.403 26.802 24.403 22.8571L6.49251 22.8571V30L17.2601 30Z" fill="#DC84F7"/>
<path d="M30 12.7398C30 9.64869 27.4941 7.14282 24.403 7.14282L24.403 22.8571H30L30 12.7398Z" fill="#DC84F7"/>
<path d="M13.6354 0C9.69052 0 6.49255 3.19797 6.49255 7.14286L24.403 7.14286L24.403 0L13.6354 0Z" fill="#DC84F7"/>
<path d="M10.9701 14.5363C10.9701 13.6089 11.7219 12.8571 12.6492 12.8571C13.5765 12.8571 14.3283 13.6089 14.3283 14.5363V17.1429H10.9701V14.5363Z" fill="#DC84F7"/>
<path d="M16.5673 14.5363C16.5673 13.6089 17.319 12.8571 18.2464 12.8571C19.1737 12.8571 19.9255 13.6089 19.9255 14.5363V17.1429H16.5673V14.5363Z" fill="#DC84F7"/>
</svg>
