<svg width="65" height="50" viewBox="0 0 65 50" fill="none" xmlns="http://www.w3.org/2000/svg">
<path d="M0 11.9048C0 5.32995 5.32995 0 11.9048 0V0V38.0952H0V11.9048Z" fill="white"/>
<path d="M38.0952 50C44.67 50 50 44.6701 50 38.0952V38.0952L11.9048 38.0952V50L38.0952 50Z" fill="white"/>
<path d="M61.9047 23.8095C61.9047 17.2347 56.5748 11.9048 50 11.9048V11.9048L50 38.0952H61.9047L61.9047 23.8095Z" fill="white"/>
<path d="M23.8095 0C17.2347 0 11.9047 5.32995 11.9047 11.9048V11.9048L50 11.9048L50 0L23.8095 0Z" fill="white"/>
<path d="M2.5 11.9048C2.5 5.32995 7.82995 0 14.4048 0V0V38.0952H2.5V11.9048Z" fill="#DC84F7"/>
<path d="M40.5952 50C47.17 50 52.5 44.6701 52.5 38.0952V38.0952L14.4048 38.0952V50L40.5952 50Z" fill="#DC84F7"/>
<path d="M64.4047 23.8095C64.4047 17.2347 59.0748 11.9048 52.5 11.9048V11.9048L52.5 38.0952H64.4047V23.8095Z" fill="#DC84F7"/>
<path d="M26.3095 0C19.7347 0 14.4047 5.32995 14.4047 11.9048V11.9048L52.5 11.9048L52.5 0L26.3095 0Z" fill="#DC84F7"/>
<path d="M23.9286 25C23.9286 23.0275 25.5276 21.4286 27.5 21.4286V21.4286C29.4725 21.4286 31.0714 23.0275 31.0714 25V28.5714H23.9286V25Z" fill="#DC84F7"/>
<path d="M35.8333 25C35.8333 23.0275 37.4323 21.4286 39.4047 21.4286V21.4286C41.3772 21.4286 42.9762 23.0275 42.9762 25V28.5714H35.8333V25Z" fill="#DC84F7"/>
</svg>
